<svg xmlns="http://www.w3.org/2000/svg" xmlns:xlink="http://www.w3.org/1999/xlink" width="1280" zoomAndPan="magnify" viewBox="0 0 960 875.999991" height="1168" preserveAspectRatio="xMidYMid meet" version="1.0"><rect x="-96" width="1152" fill="#ffffff" y="-87.599999" height="1051.199989" fill-opacity="1"/><rect x="-96" width="1152" fill="#ffffff" y="-87.599999" height="1051.199989" fill-opacity="1"/><path fill="#10b981" d="M 714.222656 2.550781 C 713.773438 3.976562 713.546875 5.324219 713.695312 5.476562 C 713.921875 5.625 715.121094 5.550781 716.398438 5.324219 C 718.347656 4.949219 718.945312 4.351562 719.320312 2.398438 C 719.773438 0.0742188 719.695312 0 717.371094 0 C 715.347656 0 714.898438 0.375 714.222656 2.550781 Z M 714.222656 2.550781 " fill-opacity="1" fill-rule="nonzero"/><path fill="#10b981" d="M 726.820312 2.398438 C 726.746094 3.226562 725.921875 3.75 724.347656 3.898438 C 722.546875 4.050781 721.648438 4.648438 720.898438 6.148438 C 720.222656 7.574219 719.023438 8.324219 716.320312 9.074219 L 712.648438 9.976562 L 712.347656 16.050781 C 711.972656 22.949219 710.320312 27.300781 704.695312 36 C 701.320312 41.175781 697.496094 49.425781 697.496094 51.523438 C 697.496094 52.125 698.472656 52.5 700.121094 52.5 C 701.546875 52.5 702.746094 52.648438 702.746094 52.949219 C 702.746094 53.175781 701.398438 55.351562 699.746094 57.824219 C 696.898438 61.949219 696.746094 62.476562 697.195312 65.851562 C 697.570312 68.925781 697.273438 70.351562 695.320312 74.851562 C 692.246094 81.75 691.871094 84 693.070312 87.523438 C 693.671875 89.324219 694.046875 95.175781 694.121094 103.875 L 694.273438 117.375 L 691.496094 125.25 C 689.921875 129.601562 688.421875 134.625 688.195312 136.5 C 686.621094 146.699219 683.621094 154.351562 678.820312 160.875 C 677.246094 162.898438 675.148438 166.648438 674.171875 169.050781 C 671.097656 176.625 664.648438 181.648438 656.546875 182.773438 C 653.695312 183.148438 652.722656 182.773438 647.097656 179.398438 C 643.722656 177.375 639.445312 174.976562 637.796875 174.148438 C 631.945312 171.226562 629.097656 166.050781 632.097656 163.800781 C 633.222656 162.898438 633.070312 162.824219 630.746094 162.75 L 628.121094 162.675781 L 630.898438 160.125 C 632.695312 158.476562 634.496094 157.5 635.773438 157.5 C 638.472656 157.5 645.746094 152.550781 645.746094 150.675781 C 645.746094 149.023438 641.773438 148.125 637.722656 148.875 C 634.195312 149.550781 630.296875 153.523438 629.246094 157.574219 C 628.722656 159.375 628.046875 160.5 627.523438 160.273438 C 626.996094 160.125 621.972656 158.398438 616.347656 156.375 L 606.070312 152.851562 L 601.121094 147.226562 C 596.695312 142.351562 595.121094 141.226562 587.695312 137.476562 C 583.121094 135.226562 579.222656 133.199219 579.070312 133.050781 C 578.921875 132.976562 579.148438 131.851562 579.597656 130.648438 C 580.121094 129.074219 580.046875 127.875 579.296875 126 C 578.246094 123.601562 578.171875 123.601562 576.746094 124.875 C 575.246094 126.226562 575.246094 126.148438 575.246094 124.050781 L 575.171875 121.875 L 573.671875 123.898438 C 572.546875 125.398438 571.421875 126 569.847656 126 C 567.820312 126 567.597656 125.851562 568.046875 124.050781 L 568.570312 122.101562 L 566.398438 123.675781 L 564.148438 125.25 L 557.171875 118.726562 C 553.273438 115.199219 549.671875 111.675781 549.148438 110.925781 C 548.621094 110.101562 547.347656 109.5 546.296875 109.5 C 543.371094 109.5 540.746094 106.351562 540.746094 102.898438 C 540.746094 99.074219 544.496094 93.375 548.773438 90.824219 C 551.097656 89.398438 552.222656 88.125 552.746094 86.25 C 553.121094 84.824219 554.097656 81.375 554.921875 78.523438 C 555.746094 75.75 556.195312 73.5 556.046875 73.5 C 555.820312 73.5 554.921875 73.875 554.097656 74.324219 C 552.222656 75.375 551.246094 74.175781 551.246094 70.875 C 551.246094 69 551.695312 68.398438 553.496094 67.726562 C 555.671875 66.898438 555.746094 66.976562 555.746094 69 C 555.746094 71.773438 556.570312 72.226562 559.496094 70.949219 L 561.972656 69.976562 L 559.570312 68.550781 C 557.097656 67.125 556.570312 66 558.222656 66 C 558.820312 66 559.871094 65.324219 560.695312 64.425781 L 562.121094 62.851562 L 562.496094 64.425781 C 562.871094 65.851562 563.171875 65.699219 567.222656 62.550781 C 571.421875 59.175781 571.570312 58.949219 571.121094 56.25 C 570.820312 54.300781 570.972656 53.25 571.796875 52.574219 C 572.546875 51.976562 572.773438 50.925781 572.546875 49.574219 C 572.171875 47.625 573.371094 46.425781 579.972656 41.925781 C 580.570312 41.476562 579.445312 39.148438 576.671875 35.101562 C 576.445312 34.726562 575.023438 34.949219 573.523438 35.625 L 570.820312 36.75 L 569.921875 32.398438 C 569.398438 30.074219 568.722656 27.824219 568.421875 27.449219 C 568.046875 27.074219 565.648438 28.199219 562.871094 30 C 558.820312 32.625 558.148438 33.375 559.121094 33.898438 C 560.023438 34.5 560.097656 34.875 559.496094 35.625 C 558.820312 36.449219 559.046875 36.75 560.546875 37.199219 C 561.597656 37.425781 562.496094 38.101562 562.496094 38.625 C 562.496094 39.824219 560.320312 41.699219 557.921875 42.601562 L 555.972656 43.351562 L 556.046875 38.550781 C 556.121094 35.925781 556.046875 33.75 555.972656 33.75 C 555.820312 33.75 553.945312 34.648438 551.695312 35.773438 C 549.371094 36.898438 547.273438 37.574219 547.046875 37.273438 C 546.746094 36.976562 547.945312 35.550781 549.671875 34.050781 C 551.921875 32.101562 552.597656 31.050781 552.070312 30.523438 C 550.871094 29.324219 551.023438 28.800781 553.570312 25.875 C 557.171875 21.824219 555.371094 22.726562 549.371094 28.199219 C 544.347656 32.625 543.296875 33.226562 538.722656 34.199219 C 532.046875 35.550781 531.898438 35.550781 530.847656 33.300781 C 530.171875 31.875 529.570312 31.5 528.296875 31.800781 C 527.097656 32.101562 526.273438 31.800781 525.523438 30.675781 C 524.472656 29.175781 524.246094 29.175781 520.496094 30.300781 C 517.347656 31.199219 515.921875 31.273438 512.773438 30.601562 C 510.597656 30.148438 508.195312 29.101562 507.296875 28.351562 C 506.472656 27.601562 504.898438 27 503.773438 27 C 501.746094 27 501.070312 26.023438 502.496094 25.125 C 504.523438 23.851562 502.648438 23.25 496.945312 23.25 L 490.648438 23.25 L 490.871094 19.726562 L 491.097656 16.125 L 488.921875 18.601562 C 486.070312 21.75 484.722656 21.375 481.121094 16.425781 C 479.621094 14.398438 478.121094 12.75 477.820312 12.75 C 477.597656 12.75 476.097656 13.574219 474.597656 14.625 C 473.097656 15.675781 471.671875 16.5 471.523438 16.5 C 471.371094 16.5 470.996094 13.574219 470.695312 9.976562 C 470.472656 6.375 470.023438 3.300781 469.871094 3.148438 C 469.195312 2.476562 466.648438 5.324219 466.195312 7.199219 C 465.746094 8.925781 465.597656 9 464.097656 7.949219 C 462.597656 6.898438 462.296875 6.898438 461.171875 7.949219 C 460.121094 8.925781 459.523438 8.925781 458.246094 8.25 C 455.996094 7.050781 452.097656 7.875 449.996094 10.125 L 448.347656 11.925781 L 452.246094 15.75 C 455.773438 19.199219 456.222656 19.425781 457.121094 18.300781 C 457.796875 17.324219 458.695312 17.101562 460.796875 17.476562 C 462.445312 17.699219 463.347656 17.625 463.121094 17.175781 C 462.820312 16.800781 462.972656 16.5 463.421875 16.5 C 464.398438 16.5 465.746094 18.976562 465.746094 20.925781 C 465.746094 21.75 466.421875 22.574219 467.246094 22.875 C 468.371094 23.25 468.746094 24 468.746094 25.949219 C 468.746094 30 467.621094 31.5 464.621094 31.5 C 462.820312 31.5 461.996094 31.875 461.996094 32.625 C 461.996094 34.5 458.996094 35.398438 452.320312 35.550781 C 442.722656 35.699219 439.195312 34.875 438.070312 32.398438 L 437.097656 30.375 L 435.972656 32.476562 C 435.296875 33.898438 434.472656 34.5 433.722656 34.199219 C 433.121094 33.976562 432.445312 33.75 432.296875 33.75 C 432.148438 33.75 431.996094 33.074219 431.996094 32.25 C 431.996094 31.425781 431.695312 30.75 431.320312 30.75 C 429.820312 30.75 428.246094 33.226562 428.246094 35.550781 C 428.246094 37.351562 427.722656 38.398438 426.070312 39.601562 C 423.972656 41.101562 423.671875 41.175781 421.121094 40.050781 C 419.546875 39.449219 418.273438 39 418.121094 39.148438 C 418.046875 39.300781 417.523438 40.125 417.070312 41.023438 C 416.621094 42 415.570312 42.75 414.820312 42.75 C 413.921875 42.75 412.945312 44.023438 411.820312 46.875 C 410.921875 49.125 409.496094 51.148438 408.820312 51.375 C 407.097656 51.898438 402.746094 57.300781 402.746094 58.875 C 402.746094 59.476562 403.347656 60.226562 404.097656 60.449219 C 404.773438 60.675781 406.195312 61.199219 407.246094 61.648438 L 409.121094 62.398438 L 406.871094 64.199219 C 405.671875 65.175781 403.421875 66.226562 401.921875 66.449219 C 399.371094 66.898438 399.148438 67.125 398.320312 70.800781 C 396.296875 79.875 396.222656 79.949219 392.695312 81 C 389.621094 81.824219 389.398438 82.125 388.121094 86.101562 C 387.371094 88.5 386.621094 90.75 386.472656 91.273438 C 386.246094 91.800781 387.597656 92.925781 389.546875 93.898438 C 392.320312 95.175781 393.148438 96.074219 393.746094 98.175781 C 394.570312 101.324219 394.347656 101.625 392.246094 100.5 C 390.972656 99.824219 390.371094 99.898438 389.246094 100.875 C 388.347656 101.625 387.296875 101.925781 386.023438 101.625 C 384.597656 101.25 383.921875 101.476562 383.320312 102.675781 L 382.496094 104.175781 L 378.898438 102.601562 C 376.722656 101.625 373.195312 100.875 369.746094 100.648438 C 364.195312 100.351562 364.046875 100.351562 360.523438 103.050781 C 358.570312 104.550781 356.847656 105.75 356.621094 105.75 C 356.472656 105.75 356.996094 104.175781 357.820312 102.226562 C 358.648438 100.351562 359.171875 98.398438 359.023438 97.949219 C 358.796875 97.5 357.148438 96.675781 355.273438 96.226562 C 352.347656 95.398438 351.671875 94.875 350.320312 91.949219 C 346.945312 84.976562 339.820312 78.75 335.320312 78.75 C 333.820312 78.75 332.996094 78.375 332.996094 77.699219 C 332.996094 77.023438 332.472656 76.800781 331.648438 77.023438 C 330.898438 77.175781 329.695312 76.648438 328.945312 75.824219 C 326.320312 72.898438 320.246094 74.324219 320.246094 77.851562 C 320.246094 78.523438 319.871094 80.476562 319.421875 82.125 L 318.597656 85.050781 L 317.171875 83.324219 C 315.671875 81.523438 315.898438 80.25 317.695312 80.25 C 319.421875 80.25 318.898438 77.476562 317.097656 77.023438 C 315.371094 76.5 314.171875 77.625 314.695312 79.125 C 314.996094 79.875 309.820312 84 308.621094 84 C 308.398438 84 308.246094 82.875 308.246094 81.449219 C 308.246094 80.023438 307.796875 78.601562 307.347656 78.300781 C 305.398438 77.101562 303.597656 77.476562 302.921875 79.273438 C 301.871094 82.125 302.097656 83.101562 304.347656 84.300781 C 306.148438 85.351562 306.222656 85.425781 304.796875 85.5 C 302.695312 85.5 301.347656 87.226562 300.820312 90.601562 L 300.371094 93.300781 L 298.121094 89.023438 C 296.847656 86.699219 295.722656 84.75 295.496094 84.75 C 295.273438 84.75 293.773438 86.925781 292.195312 89.625 C 290.621094 92.324219 289.046875 94.5 288.671875 94.5 C 288.296875 94.5 287.621094 93.824219 287.097656 93 C 285.820312 90.976562 285.148438 91.125 284.847656 93.523438 L 284.546875 95.625 L 283.722656 93.824219 L 282.972656 91.949219 L 281.621094 93.976562 C 280.496094 95.773438 280.421875 96.601562 281.171875 100.273438 C 282.597656 107.398438 282.523438 107.550781 278.921875 105.675781 C 276.148438 104.324219 275.695312 104.25 274.648438 105.226562 C 273.671875 106.273438 273.371094 106.199219 272.171875 104.773438 C 270.972656 103.351562 270.671875 103.273438 269.996094 104.25 C 268.871094 106.050781 269.023438 106.273438 272.246094 106.800781 C 275.621094 107.324219 275.546875 107.175781 274.347656 111.074219 C 273.597656 113.851562 273.296875 114 270.597656 114 C 268.570312 114 267.746094 113.699219 267.746094 112.875 C 267.746094 112.125 266.996094 111.75 265.496094 111.75 C 263.773438 111.75 263.171875 112.125 262.796875 113.625 C 262.421875 115.050781 261.820312 115.5 260.320312 115.5 C 258.671875 115.574219 258.523438 115.648438 259.648438 116.324219 C 260.546875 116.851562 261.445312 116.773438 262.570312 116.25 C 263.398438 115.726562 264.296875 115.574219 264.523438 115.726562 C 264.671875 115.949219 264.445312 118.050781 263.996094 120.375 C 263.023438 124.949219 263.621094 133.5 264.898438 133.5 C 265.273438 133.5 266.246094 133.125 267.070312 132.75 C 268.195312 132.074219 268.496094 132.226562 268.496094 133.273438 C 268.496094 135.226562 267.597656 136.273438 265.871094 136.574219 C 265.046875 136.726562 263.847656 137.925781 263.171875 139.199219 C 262.046875 141.523438 261.972656 141.523438 260.171875 140.324219 C 257.695312 138.675781 250.648438 136.351562 249.746094 136.875 C 249.296875 137.101562 248.996094 136.800781 248.996094 136.125 C 248.996094 135.300781 248.546875 135 247.722656 135.300781 C 244.945312 136.125 240.820312 135.976562 239.695312 135.074219 C 238.273438 133.875 238.046875 134.023438 237.371094 136.574219 C 236.921875 138.226562 237.222656 138.675781 239.921875 139.875 C 243.445312 141.449219 243.597656 141.75 241.496094 143.625 C 238.570312 146.25 238.945312 147.300781 244.648438 152.851562 L 250.121094 158.25 L 244.496094 158.25 L 244.496094 162.898438 C 244.496094 166.273438 244.273438 167.324219 243.746094 166.5 C 243.296875 165.75 242.996094 165.675781 242.996094 166.273438 C 242.996094 168.523438 241.273438 166.875 238.121094 161.476562 C 236.246094 158.25 234.523438 154.574219 234.296875 153.148438 C 233.921875 151.199219 233.398438 150.601562 231.671875 150.226562 C 230.472656 150 229.496094 149.625 229.570312 149.324219 C 229.570312 149.101562 231.371094 147.375 233.621094 145.5 L 237.597656 142.125 L 233.398438 141.898438 C 229.273438 141.675781 229.046875 141.75 226.871094 144.449219 C 225.671875 145.949219 223.648438 149.023438 222.371094 151.351562 C 220.722656 154.5 219.070312 156.300781 215.921875 158.324219 C 209.023438 162.898438 208.648438 164.101562 209.097656 179.398438 L 209.246094 185.925781 L 211.496094 185.550781 C 213.371094 185.101562 213.746094 185.324219 214.195312 187.050781 C 214.796875 189.449219 215.398438 188.773438 207.296875 194.476562 C 201.597656 198.523438 200.621094 199.5 200.398438 201.523438 C 200.171875 203.398438 199.722656 204 198.070312 204.375 C 196.273438 204.75 195.898438 205.273438 195.523438 207.824219 C 194.320312 216.824219 186.671875 225.449219 175.195312 231 C 160.421875 238.050781 149.695312 241.050781 143.546875 239.925781 C 138.671875 239.023438 136.195312 240 131.921875 244.351562 C 128.695312 247.726562 128.023438 248.023438 118.796875 250.574219 C 109.347656 253.199219 109.121094 253.273438 107.621094 256.050781 C 106.421875 258.375 105.371094 259.125 101.996094 260.25 C 96.820312 262.050781 95.847656 262.050781 93.671875 260.324219 C 91.945312 258.976562 91.871094 258.976562 87.820312 260.324219 C 82.347656 262.199219 82.121094 262.125 83.921875 259.273438 L 85.496094 256.726562 L 83.695312 255.074219 L 81.898438 253.425781 L 80.921875 257.175781 C 79.945312 261 79.945312 261 78.445312 259.574219 C 77.097656 258.300781 76.648438 258.226562 75.070312 259.125 C 73.273438 260.101562 73.273438 260.101562 74.847656 260.550781 L 76.496094 261.074219 L 74.921875 263.175781 C 74.097656 264.375 71.921875 266.101562 70.273438 267.074219 C 68.546875 267.976562 63.371094 272.398438 58.722656 276.898438 C 54.070312 281.324219 49.871094 285 49.347656 285 C 48.820312 285 44.695312 287.476562 40.195312 290.476562 L 32.023438 295.875 L 27.445312 304.648438 C 24.898438 309.523438 22.722656 313.5 22.496094 313.5 C 22.273438 313.5 21.445312 311.324219 20.695312 308.625 C 19.648438 305.023438 19.421875 302.550781 19.796875 299.550781 C 20.246094 295.800781 20.171875 295.5 18.972656 296.175781 C 15.148438 298.199219 13.046875 302.773438 10.121094 315 L 8.773438 320.699219 L 10.570312 324 C 11.847656 326.550781 12.371094 328.949219 12.597656 334.125 C 12.898438 340.648438 12.820312 341.101562 10.046875 347.25 C 7.273438 353.25 7.121094 354.074219 7.121094 361.125 C 7.121094 368.398438 7.195312 368.699219 9.597656 372.226562 C 10.945312 374.175781 12.898438 377.699219 13.945312 380.023438 C 14.996094 382.273438 18.222656 387.375 21.222656 391.273438 C 30.296875 403.125 31.273438 404.773438 31.796875 408.226562 C 32.398438 412.050781 31.648438 417.898438 30.671875 417.300781 C 29.621094 416.699219 26.847656 410.925781 26.246094 408.375 L 25.722656 406.125 L 24.371094 408.898438 C 22.871094 411.976562 21.746094 412.574219 21.746094 410.398438 C 21.746094 407.324219 20.023438 403.351562 16.871094 399.375 L 13.570312 395.023438 L 12.746094 397.050781 C 10.722656 402.375 12.820312 407.550781 19.570312 413.851562 C 24.371094 418.425781 24.972656 420.148438 22.570312 423.074219 L 21.148438 424.800781 L 17.320312 417.074219 C 13.496094 409.574219 13.421875 409.425781 11.246094 409.875 C 9.070312 410.324219 8.921875 410.175781 5.847656 403.949219 C 3.523438 399.226562 2.246094 397.5 1.195312 397.5 C -0.00390625 397.5 -0.152344 397.875 0.222656 400.5 C 0.820312 405 10.496094 419.851562 15.972656 424.574219 C 25.421875 432.824219 34.496094 446.398438 34.496094 452.25 C 34.496094 457.726562 35.996094 460.648438 41.621094 466.5 C 45.523438 470.476562 47.621094 473.324219 48.746094 476.175781 C 49.648438 478.425781 51.597656 481.800781 53.171875 483.675781 C 57.597656 489 58.496094 491.398438 59.996094 501.675781 C 61.945312 515.476562 65.546875 524.324219 74.472656 537.523438 C 78.296875 543.300781 82.273438 549.601562 83.246094 551.550781 C 85.046875 555.375 85.722656 561.300781 85.570312 573.675781 C 85.570312 577.273438 86.023438 581.625 86.621094 583.800781 C 88.121094 588.898438 88.046875 592.351562 86.171875 595.875 C 83.921875 600.148438 82.722656 600.898438 78.972656 600.300781 L 75.746094 599.851562 L 75.597656 602.324219 C 75.222656 611.175781 76.570312 617.25 79.722656 621.148438 C 80.621094 622.273438 81.148438 622.351562 83.246094 621.675781 C 86.695312 620.476562 90.148438 621.675781 96.070312 626.25 C 99.671875 629.023438 103.046875 630.75 108.445312 632.625 C 115.421875 635.101562 116.246094 635.175781 122.246094 634.726562 C 125.773438 634.425781 130.796875 634.273438 133.496094 634.351562 C 139.570312 634.5 144.671875 633.375 150.222656 630.601562 C 154.871094 628.273438 154.871094 628.351562 153.746094 626.25 C 153.070312 625.050781 153.523438 624.449219 156.296875 622.351562 C 158.097656 621 160.347656 618.601562 161.320312 616.949219 C 162.898438 614.175781 163.046875 614.101562 166.195312 614.550781 C 168.597656 614.851562 170.695312 614.550781 173.695312 613.425781 C 177.671875 611.925781 177.820312 611.773438 176.621094 610.5 C 175.421875 609.148438 175.421875 608.925781 176.996094 606.375 C 177.972656 604.800781 180.070312 602.625 181.722656 601.425781 C 184.195312 599.625 185.472656 599.25 188.847656 599.25 C 191.398438 599.25 195.371094 598.425781 199.421875 597.074219 C 205.273438 595.050781 206.996094 594.824219 217.347656 594.601562 C 224.320312 594.449219 228.671875 594.675781 228.523438 595.125 C 228.371094 595.5 228.820312 596.398438 229.421875 597.148438 C 230.472656 598.425781 230.695312 598.351562 232.570312 596.550781 C 234.445312 594.75 235.273438 594.523438 242.023438 594.300781 C 247.570312 594.074219 249.820312 594.226562 250.871094 595.050781 C 252.148438 595.949219 252.597656 595.875 254.921875 594.375 C 256.421875 593.398438 258.898438 592.425781 260.398438 592.199219 C 264.222656 591.523438 267.597656 587.324219 270.371094 579.824219 C 273.523438 571.125 275.546875 568.949219 282.222656 566.925781 C 285.898438 565.875 291.445312 563.023438 299.621094 558 C 315.898438 548.101562 314.398438 548.699219 320.472656 549.300781 C 325.796875 549.824219 341.097656 548.101562 344.921875 546.601562 C 345.972656 546.226562 351.296875 544.351562 356.621094 542.476562 C 362.023438 540.601562 368.398438 538.050781 370.871094 536.773438 C 380.097656 532.125 382.722656 531.675781 403.121094 531.074219 C 413.472656 530.773438 422.472656 530.25 423.148438 529.949219 C 425.320312 528.976562 432.296875 530.925781 436.195312 533.550781 C 438.222656 534.898438 442.195312 537.601562 445.121094 539.625 C 450.523438 543.300781 452.320312 543.601562 457.871094 541.875 C 458.996094 541.574219 460.871094 542.398438 464.246094 544.648438 C 468.898438 547.726562 469.347656 547.875 474.597656 547.800781 L 480.070312 547.726562 L 477.597656 550.273438 L 475.121094 552.898438 L 479.023438 551.398438 C 481.195312 550.574219 483.070312 550.125 483.296875 550.351562 C 483.597656 550.574219 483.746094 552.226562 483.746094 554.023438 L 483.746094 557.25 L 486.597656 557.25 C 488.472656 557.25 489.972656 557.773438 490.722656 558.601562 C 492.445312 560.476562 492.371094 560.699219 489.746094 561.675781 C 487.871094 562.273438 487.496094 562.875 487.496094 564.75 C 487.496094 566.101562 487.945312 567.226562 488.621094 567.449219 C 489.371094 567.75 489.597656 568.425781 489.371094 569.324219 C 489.070312 570.148438 489.597656 571.648438 490.570312 573 C 492.148438 575.023438 492.671875 575.25 496.570312 575.25 C 498.972656 575.25 501.148438 575.625 501.371094 576.074219 C 501.671875 576.523438 502.046875 578.925781 502.347656 581.476562 C 502.722656 585.75 503.023438 586.5 506.320312 590.023438 C 510.070312 594.148438 511.871094 598.425781 512.695312 604.875 C 513.070312 607.949219 512.996094 608.476562 512.171875 607.648438 C 510.597656 606.226562 509.621094 606.601562 508.722656 609.074219 C 507.898438 611.25 507.898438 611.398438 509.472656 610.949219 C 510.898438 610.648438 511.570312 611.398438 514.347656 616.5 C 516.148438 619.800781 517.722656 622.5 517.871094 622.5 C 518.023438 622.5 519.296875 621.824219 520.796875 621 L 523.347656 619.425781 L 523.871094 621 C 524.398438 622.648438 526.121094 623.023438 526.722656 621.601562 C 526.871094 621.074219 527.621094 617.398438 528.371094 613.425781 L 529.722656 606.226562 L 535.421875 601.726562 C 538.570312 599.25 544.347656 595.5 548.246094 593.398438 L 555.371094 589.574219 L 560.246094 581.324219 C 565.046875 573.148438 565.195312 573.074219 567.445312 573.449219 C 569.546875 573.824219 569.921875 573.601562 570.597656 571.726562 C 571.121094 570.375 571.421875 570.074219 571.421875 570.976562 C 571.496094 571.726562 572.023438 573.375 572.695312 574.648438 C 573.898438 576.898438 573.898438 576.976562 571.570312 578.773438 C 569.695312 580.273438 569.246094 581.175781 569.246094 583.5 C 569.246094 587.625 568.195312 589.875 564.371094 594.300781 C 562.121094 596.851562 560.546875 599.550781 559.722656 602.25 C 559.121094 604.5 557.921875 607.648438 557.171875 609.148438 C 555.371094 612.601562 555.371094 612.675781 557.246094 612.226562 C 558.296875 611.925781 558.671875 612.148438 558.445312 612.824219 C 558.222656 613.425781 557.695312 615.824219 557.246094 618.148438 L 556.421875 622.351562 L 552.523438 621.976562 C 549.371094 621.675781 548.398438 621.824219 547.347656 622.949219 C 545.847656 624.675781 542.847656 631.5 543.597656 631.5 C 543.898438 631.5 546.746094 630.976562 549.972656 630.375 C 553.195312 629.773438 557.320312 629.25 559.121094 629.25 C 562.273438 629.25 562.273438 629.25 564.222656 624.898438 C 565.273438 622.574219 567.371094 617.101562 568.945312 612.824219 L 571.871094 605.023438 L 574.648438 610.949219 C 577.945312 618 579.148438 623.851562 578.246094 628.5 C 577.871094 630.375 577.570312 632.101562 577.496094 632.398438 C 577.496094 633.523438 572.695312 638.398438 570.671875 639.449219 C 569.472656 640.050781 568.496094 641.023438 568.496094 641.625 C 568.496094 643.574219 573.371094 644.101562 581.097656 643.125 L 585.820312 642.523438 L 589.796875 646.648438 C 596.398438 653.476562 601.648438 663.675781 602.546875 671.476562 C 602.921875 674.773438 602.773438 675.300781 600.746094 677.398438 C 598.496094 679.574219 598.496094 679.800781 599.171875 683.699219 C 600.070312 688.425781 601.421875 691.199219 604.046875 693.824219 C 605.171875 694.949219 605.847656 696.300781 605.621094 696.824219 C 605.472656 697.425781 606.671875 700.199219 608.472656 703.125 C 611.097656 707.550781 612.222656 708.675781 615.371094 710.101562 C 625.347656 714.675781 625.796875 715.050781 627.746094 718.800781 C 628.796875 720.824219 630.148438 722.699219 630.671875 722.851562 C 631.195312 723 632.398438 722.25 633.371094 721.050781 L 635.023438 718.949219 L 638.695312 720.375 C 645.898438 723 652.648438 726.898438 658.722656 731.625 C 665.472656 737.023438 668.621094 738.75 671.546875 738.75 C 672.597656 738.75 677.398438 736.726562 682.121094 734.25 C 686.847656 731.773438 691.421875 729.75 692.171875 729.75 C 694.496094 729.75 697.347656 731.324219 698.695312 733.351562 C 699.898438 735.148438 701.472656 735.300781 705.222656 733.875 C 706.273438 733.425781 706.496094 733.726562 706.347656 735.074219 C 706.195312 736.5 706.871094 737.25 709.648438 738.75 C 714.371094 741.300781 716.773438 743.699219 717.898438 746.773438 C 718.796875 749.324219 719.246094 749.476562 722.320312 748.125 C 723.296875 747.75 723.820312 748.273438 724.496094 750.375 C 725.023438 751.875 725.246094 753.898438 725.023438 754.949219 C 724.722656 756.601562 724.945312 756.75 727.945312 756.75 L 731.246094 756.75 L 731.246094 752.625 C 731.246094 749.023438 731.472656 748.5 732.746094 748.5 C 735.597656 748.5 742.195312 745.351562 749.621094 740.398438 C 764.023438 730.875 770.472656 729.75 787.496094 733.800781 C 797.171875 736.125 798.746094 735.976562 805.273438 732.75 C 809.398438 730.648438 810.671875 729.375 811.796875 725.773438 C 812.023438 725.023438 812.546875 724.574219 812.921875 724.800781 C 813.296875 725.023438 813.746094 722.925781 813.898438 720.148438 C 814.273438 714.148438 817.796875 705.675781 821.621094 702 C 823.121094 700.5 823.945312 699.148438 823.722656 698.324219 C 822.820312 694.800781 827.472656 685.648438 833.695312 678.75 C 835.273438 677.023438 838.496094 674.625 840.898438 673.425781 C 844.871094 671.398438 845.246094 671.023438 845.246094 668.773438 C 845.246094 667.5 846.671875 663.074219 848.398438 658.949219 C 851.246094 652.273438 851.921875 651.375 855.445312 648.824219 C 858.371094 646.800781 860.097656 644.851562 862.121094 641.101562 C 863.695312 638.101562 867.898438 632.773438 872.398438 627.976562 C 879.523438 620.25 880.273438 619.726562 885.898438 617.625 C 889.195312 616.351562 892.421875 614.625 893.097656 613.726562 C 893.773438 612.824219 895.195312 612 896.246094 611.851562 C 897.820312 611.699219 898.347656 610.875 899.695312 606.75 C 900.898438 603.226562 902.921875 599.851562 907.496094 594 C 914.847656 584.550781 918.972656 576.75 920.246094 569.625 C 920.773438 566.550781 922.195312 562.648438 923.546875 560.25 C 927.371094 553.648438 931.347656 544.949219 934.195312 537.074219 C 935.621094 533.101562 937.796875 528.601562 938.996094 527.023438 C 945.898438 518.398438 945.597656 519 946.796875 510.898438 C 947.773438 504.074219 947.773438 502.800781 946.722656 499.875 C 945.671875 496.648438 945.671875 496.351562 947.921875 490.351562 C 950.171875 484.125 952.421875 472.199219 951.523438 471.300781 C 950.320312 470.101562 948.746094 473.101562 947.921875 478.199219 C 947.398438 481.273438 946.722656 483.75 946.421875 483.75 C 945.445312 483.75 944.246094 481.648438 944.621094 480.601562 C 944.921875 479.851562 944.546875 479.324219 943.570312 479.023438 C 942.523438 478.800781 941.996094 478.050781 941.996094 476.851562 C 941.996094 475.949219 941.773438 474.300781 941.472656 473.324219 C 941.097656 471.75 941.246094 471.601562 942.671875 471.976562 C 943.648438 472.199219 944.472656 472.050781 944.621094 471.523438 C 944.773438 471 945.222656 466.199219 945.671875 460.800781 C 946.195312 453 946.796875 450.074219 948.371094 446.175781 C 949.871094 442.648438 950.472656 439.949219 950.546875 436.050781 C 950.621094 430.875 950.773438 430.5 954.972656 424.125 C 959.097656 417.976562 959.398438 417.226562 959.773438 412.050781 C 959.996094 408.976562 959.996094 406.5 959.621094 406.5 C 959.320312 406.5 958.121094 407.101562 956.996094 407.773438 C 955.195312 408.824219 954.746094 409.574219 954.597656 412.425781 C 954.371094 415.351562 953.996094 416.101562 951.746094 417.601562 C 949.648438 418.949219 949.195312 419.773438 949.347656 421.273438 C 949.648438 423.226562 949.496094 423.148438 945.746094 420 C 941.472656 416.398438 941.246094 416.023438 939.070312 408.375 C 937.871094 404.175781 936.898438 402.449219 934.273438 399.898438 C 932.246094 397.949219 929.695312 393.976562 927.371094 389.25 C 923.773438 381.976562 923.621094 381.75 919.796875 380.175781 C 915.972656 378.601562 915.898438 378.523438 915.445312 374.699219 C 915.222656 372.601562 914.996094 369.601562 914.996094 368.101562 C 914.996094 365.699219 914.621094 365.101562 912.671875 364.050781 C 910.796875 363.074219 909.898438 363 908.398438 363.675781 C 907.421875 364.199219 906.371094 364.351562 906.070312 364.125 C 904.945312 362.925781 904.722656 353.398438 905.773438 349.125 C 907.496094 342.300781 907.273438 337.726562 905.023438 333.300781 C 902.398438 328.199219 901.347656 327.375 899.695312 329.175781 C 898.421875 330.523438 898.421875 330.675781 899.847656 331.425781 C 900.898438 332.023438 901.195312 332.699219 900.898438 334.199219 L 900.523438 336.226562 L 898.195312 333.675781 C 896.996094 332.324219 895.347656 331.199219 894.671875 331.351562 C 893.773438 331.5 893.097656 330.75 892.496094 328.726562 C 891.070312 324.375 889.648438 322.5 887.621094 322.5 C 886.046875 322.5 885.820312 322.875 885.296875 326.699219 C 884.847656 330.75 884.773438 330.824219 882.820312 330.375 C 880.347656 329.773438 880.347656 329.773438 878.320312 324.824219 C 876.746094 321.074219 876.671875 320.625 877.796875 319.875 C 878.921875 319.050781 878.847656 318.675781 877.421875 315.449219 C 875.847656 311.925781 875.921875 311.398438 877.871094 306.601562 C 878.246094 305.699219 877.796875 305.25 876.222656 304.949219 C 874.195312 304.5 874.121094 304.273438 874.046875 299.773438 C 873.972656 293.773438 872.246094 289.875 869.023438 288 C 867.371094 287.023438 865.570312 284.851562 864.070312 282.074219 C 862.796875 279.675781 861.746094 277.5 861.746094 277.273438 C 861.746094 276.148438 864.523438 276.523438 865.648438 277.875 C 866.921875 279.375 866.921875 279.375 866.996094 277.125 L 867.070312 274.875 L 868.871094 276.898438 C 872.097656 280.648438 875.023438 279.074219 872.171875 275.175781 C 870.820312 273.226562 870.671875 272.550781 871.421875 271.050781 C 872.546875 268.5 872.472656 267.75 870.972656 267.75 C 870.296875 267.75 869.171875 267.226562 868.496094 266.625 C 867.445312 265.648438 867.296875 265.800781 867.597656 268.351562 L 867.898438 271.125 L 864.296875 267.75 C 862.273438 265.875 859.796875 263.625 858.898438 262.875 L 857.097656 261.375 L 855.371094 263.550781 L 853.648438 265.726562 L 853.195312 263.476562 C 852.898438 262.199219 851.695312 260.25 850.496094 259.125 C 848.773438 257.476562 847.871094 257.101562 846.070312 257.476562 C 843.898438 257.925781 843.820312 257.851562 843.597656 254.773438 C 843.445312 252.375 842.996094 251.550781 841.945312 251.398438 C 841.195312 251.25 840.222656 251.625 839.847656 252.300781 C 838.871094 254.023438 837.746094 253.800781 837.746094 251.773438 C 837.746094 249.601562 834.597656 242.925781 832.945312 241.574219 C 831.898438 240.675781 831.523438 240.675781 830.996094 241.425781 C 830.097656 242.925781 827.398438 241.726562 826.046875 239.175781 C 824.996094 237.074219 824.847656 237 823.347656 238.050781 C 821.921875 239.023438 821.546875 239.023438 819.597656 238.050781 C 817.496094 236.925781 817.421875 236.851562 818.621094 235.5 C 819.820312 234.148438 819.746094 234.074219 816.972656 233.550781 C 808.195312 231.976562 806.921875 229.199219 808.121094 214.574219 L 808.722656 208.273438 L 804.820312 208.726562 L 800.847656 209.175781 L 802.347656 206.699219 C 803.171875 205.351562 804.371094 203.398438 805.046875 202.351562 C 805.871094 201.074219 806.023438 200.25 805.570312 199.875 C 805.121094 199.648438 804.746094 197.023438 804.820312 194.023438 C 804.820312 190.351562 804.222656 186.601562 802.945312 182.25 C 800.621094 174.523438 800.621094 174.75 802.496094 174.75 C 805.046875 174.75 804.148438 172.949219 800.546875 171.074219 C 796.648438 168.976562 794.171875 166.273438 791.546875 161.101562 C 789.671875 157.425781 789.671875 157.351562 791.171875 156.976562 C 793.121094 156.449219 793.121094 156.449219 790.796875 143.773438 C 789.746094 138 789.070312 132.375 789.371094 131.324219 C 789.597656 130.273438 790.121094 127.648438 790.496094 125.625 C 790.796875 123.523438 791.320312 121.351562 791.546875 120.75 C 791.847656 119.925781 789.371094 117.824219 782.921875 113.25 C 777.746094 109.648438 773.546875 106.199219 773.171875 105.148438 C 772.796875 104.175781 772.496094 102.074219 772.496094 100.5 C 772.496094 98.925781 772.195312 97.425781 771.898438 97.199219 C 771.523438 96.976562 770.023438 97.648438 768.523438 98.699219 L 765.746094 100.574219 L 765.746094 98.625 C 765.746094 96.074219 764.695312 96.300781 762.371094 99.300781 C 758.320312 104.625 754.722656 105.375 752.695312 101.398438 C 750.070312 96.226562 748.195312 87.300781 748.046875 79.125 C 747.972656 74.550781 747.820312 70.351562 747.671875 69.75 C 747.597656 69.148438 747.746094 66.824219 748.046875 64.648438 L 748.570312 60.75 L 743.246094 60.75 L 744.820312 57.601562 L 746.472656 54.375 L 742.195312 50.625 C 739.796875 48.449219 737.996094 46.199219 737.996094 45.375 C 737.996094 43.574219 740.695312 39 741.746094 39 C 743.695312 39 742.121094 37.648438 738.445312 36.074219 C 734.996094 34.648438 734.171875 33.898438 733.195312 31.425781 C 732.523438 29.773438 731.996094 26.398438 731.996094 23.773438 C 731.996094 17.699219 730.871094 13.726562 728.171875 10.351562 C 726.296875 7.949219 726.070312 7.273438 726.746094 6 C 727.195312 5.101562 727.421875 3.675781 727.273438 2.773438 C 727.046875 1.726562 726.898438 1.574219 726.820312 2.398438 Z M 705.371094 723.074219 C 705.972656 727.351562 704.996094 729.074219 701.171875 730.425781 C 699.070312 731.175781 699.070312 731.175781 698.546875 727.425781 C 698.171875 724.800781 697.722656 723.75 696.820312 723.75 C 695.773438 723.675781 703.121094 719.398438 704.398438 719.25 C 704.621094 719.25 705.070312 720.976562 705.371094 723.074219 Z M 705.371094 723.074219 " fill-opacity="1" fill-rule="nonzero"/><path fill="#10b981" d="M 411.746094 6.898438 C 411.746094 7.5 410.695312 9.976562 409.421875 12.375 C 407.695312 15.601562 407.246094 17.175781 407.621094 18.898438 C 408.070312 20.925781 407.996094 21.074219 406.648438 20.625 C 405.445312 20.25 404.847656 20.699219 403.945312 22.351562 L 402.820312 24.601562 L 411.222656 25.125 C 415.871094 25.425781 421.796875 25.875 424.496094 26.175781 C 429.222656 26.773438 429.523438 26.699219 434.996094 23.699219 C 440.023438 20.925781 440.621094 20.324219 440.621094 18.375 C 440.695312 17.101562 440.921875 15.75 441.222656 15.300781 C 442.046875 13.875 440.320312 10.050781 438.371094 9 C 436.871094 8.175781 435.523438 8.398438 428.546875 10.800781 C 419.472656 13.800781 420.746094 14.023438 414.597656 8.324219 C 412.648438 6.523438 411.746094 6.074219 411.746094 6.898438 Z M 411.746094 6.898438 " fill-opacity="1" fill-rule="nonzero"/><path fill="#10b981" d="M 570.371094 12.449219 C 567.972656 15.675781 564.070312 20.023438 561.820312 22.050781 C 557.246094 26.175781 558.222656 26.175781 564.445312 22.050781 C 569.246094 18.824219 573.371094 14.25 574.570312 10.726562 C 576.070312 6 574.796875 6.523438 570.371094 12.449219 Z M 570.371094 12.449219 " fill-opacity="1" fill-rule="nonzero"/><path fill="#10b981" d="M 567.148438 76.273438 C 564.523438 78.898438 561.972656 79.050781 561.371094 76.5 L 560.847656 74.625 L 559.046875 76.726562 C 556.496094 79.648438 556.796875 80.25 560.621094 80.25 L 564.070312 80.25 L 563.546875 83.023438 C 563.246094 84.601562 562.570312 86.476562 561.898438 87.148438 C 560.546875 88.800781 560.398438 88.726562 570.597656 90.601562 L 578.246094 92.023438 L 578.246094 89.851562 C 578.246094 87.898438 578.023438 87.75 575.246094 87.75 C 573.523438 87.75 572.246094 87.375 572.246094 86.925781 C 572.246094 86.476562 573.222656 84.074219 574.496094 81.675781 C 576.820312 77.023438 576.820312 76.726562 574.421875 78 C 573.148438 78.75 572.996094 78.523438 572.996094 76.5 C 572.996094 74.550781 572.695312 74.25 571.121094 74.25 C 569.996094 74.25 568.273438 75.148438 567.148438 76.273438 Z M 567.148438 76.273438 " fill-opacity="1" fill-rule="nonzero"/><path fill="#10b981" d="M 637.121094 165.898438 C 636.148438 167.324219 636.148438 167.699219 636.972656 167.851562 C 638.695312 168.226562 641.996094 166.574219 641.996094 165.375 C 641.996094 163.574219 638.546875 164.023438 637.121094 165.898438 Z M 637.121094 165.898438 " fill-opacity="1" fill-rule="nonzero"/><path fill="#10b981" d="M 811.496094 219.449219 C 811.496094 221.773438 813.445312 224.25 815.171875 224.25 C 815.773438 224.25 815.546875 223.273438 814.421875 221.398438 C 811.945312 217.273438 811.496094 216.976562 811.496094 219.449219 Z M 811.496094 219.449219 " fill-opacity="1" fill-rule="nonzero"/><path fill="#10b981" d="M 46.195312 267 C 44.847656 270.449219 44.695312 271.949219 45.746094 272.625 C 46.648438 273.148438 48.746094 269.101562 48.746094 266.699219 C 48.746094 263.625 47.472656 263.773438 46.195312 267 Z M 46.195312 267 " fill-opacity="1" fill-rule="nonzero"/><path fill="#10b981" d="M 870.671875 281.550781 C 871.871094 282.976562 873.972656 283.125 873.597656 281.773438 C 873.371094 281.324219 872.472656 280.726562 871.496094 280.648438 C 869.921875 280.425781 869.847656 280.5 870.671875 281.550781 Z M 870.671875 281.550781 " fill-opacity="1" fill-rule="nonzero"/><path fill="#10b981" d="M 2.472656 384.375 C 2.472656 387.226562 2.621094 388.351562 2.773438 386.773438 C 2.921875 385.273438 2.921875 382.875 2.773438 381.523438 C 2.621094 380.25 2.472656 381.449219 2.472656 384.375 Z M 2.472656 384.375 " fill-opacity="1" fill-rule="nonzero"/><path fill="#10b981" d="M 227.996094 598.574219 C 228.523438 599.398438 229.046875 600 229.195312 599.773438 C 229.722656 599.25 228.671875 597 227.921875 597 C 227.472656 597 227.546875 597.675781 227.996094 598.574219 Z M 227.996094 598.574219 " fill-opacity="1" fill-rule="nonzero"/><path fill="#10b981" d="M 542.472656 640.800781 C 536.023438 642.375 535.046875 644.023438 537.523438 649.125 L 538.796875 651.75 L 547.570312 651.75 C 556.046875 651.75 556.347656 651.675781 557.546875 649.875 C 558.671875 648.148438 559.273438 648 563.996094 648 C 568.722656 648 569.246094 647.851562 569.246094 646.574219 C 569.246094 644.550781 568.195312 644.101562 566.023438 645.074219 C 563.398438 646.273438 559.496094 644.175781 559.496094 641.625 C 559.496094 639.75 559.421875 639.75 552.972656 639.824219 C 549.296875 639.824219 544.648438 640.273438 542.472656 640.800781 Z M 542.472656 640.800781 " fill-opacity="1" fill-rule="nonzero"/><path fill="#10b981" d="M 676.121094 760.425781 C 673.871094 760.875 673.871094 760.949219 673.195312 767.476562 C 672.820312 771.074219 672.671875 774.226562 672.972656 774.449219 C 673.648438 775.199219 677.246094 772.351562 678.445312 770.175781 C 679.570312 768 679.945312 760.800781 678.972656 760.273438 C 678.597656 760.125 677.398438 760.199219 676.121094 760.425781 Z M 676.121094 760.425781 " fill-opacity="1" fill-rule="nonzero"/><path fill="#10b981" d="M 743.996094 768.601562 C 743.996094 769.5 745.421875 770.550781 745.945312 770.023438 C 746.097656 769.875 745.796875 769.273438 745.121094 768.75 C 744.445312 768.148438 743.996094 768.148438 743.996094 768.601562 Z M 743.996094 768.601562 " fill-opacity="1" fill-rule="nonzero"/><path fill="#10b981" d="M 752.847656 779.625 C 751.195312 781.800781 751.195312 782.773438 752.621094 786.226562 C 753.972656 789.449219 754.046875 790.800781 752.921875 790.125 C 752.097656 789.601562 749.246094 791.773438 749.246094 792.898438 C 749.246094 793.726562 752.097656 793.648438 752.621094 792.75 C 752.921875 792.226562 753.597656 792.226562 754.570312 792.75 C 756.523438 793.800781 756.371094 794.625 754.046875 795.601562 C 752.097656 796.574219 752.097656 796.875 753.820312 801.523438 C 754.421875 803.101562 754.570312 803.101562 758.246094 802.125 C 760.421875 801.523438 762.371094 800.925781 762.597656 800.699219 C 762.820312 800.476562 762.597656 798.449219 762.070312 796.199219 C 761.320312 792.976562 761.320312 791.398438 762.070312 789.074219 C 762.972656 786.148438 762.898438 785.925781 759.820312 781.875 C 756.371094 777.375 754.796875 776.851562 752.847656 779.625 Z M 752.847656 779.625 " fill-opacity="1" fill-rule="nonzero"/><path fill="#10b981" d="M 686.996094 787.648438 C 684.445312 793.199219 682.496094 800.25 682.496094 804 C 682.496094 807.898438 684.445312 815.398438 686.996094 821.398438 L 689.246094 826.726562 L 688.046875 835.273438 L 686.921875 843.898438 L 690.746094 853.875 C 693.597656 861.148438 694.945312 863.773438 695.695312 863.476562 C 696.523438 863.175781 696.746094 864 696.746094 866.925781 L 696.746094 870.75 L 699.371094 870.75 C 700.871094 870.75 703.945312 871.726562 706.347656 872.925781 C 712.570312 876.074219 713.773438 876.300781 714.296875 874.726562 C 714.597656 873.976562 715.273438 872.773438 715.796875 872.023438 C 716.847656 870.675781 716.996094 870.675781 718.796875 871.875 C 720.371094 872.925781 720.972656 873 721.871094 872.25 C 722.472656 871.726562 722.996094 870.675781 722.996094 869.925781 C 722.996094 869.023438 723.746094 868.199219 724.871094 867.75 C 726.445312 867.148438 726.671875 866.699219 726.296875 864.824219 C 725.847656 862.875 726.070312 862.574219 728.246094 862.125 C 729.523438 861.824219 730.722656 861.75 730.871094 861.898438 C 731.023438 861.976562 730.871094 863.550781 730.496094 865.351562 C 729.898438 868.875 729.820312 868.800781 733.648438 869.851562 C 736.796875 870.675781 736.945312 870.523438 737.621094 864.976562 C 737.921875 862.949219 737.773438 860.476562 737.320312 859.273438 C 736.570312 857.398438 736.648438 857.25 738.371094 857.25 C 740.246094 857.25 743.246094 854.925781 743.246094 853.425781 C 743.246094 852.976562 742.570312 852.824219 741.671875 853.125 C 740.320312 853.574219 740.171875 853.425781 740.621094 851.851562 C 741.972656 847.648438 745.570312 842.25 747.070312 842.25 C 747.445312 842.25 747.222656 843.601562 746.621094 845.175781 C 745.722656 847.800781 745.722656 848.101562 746.695312 847.726562 C 748.347656 847.125 749.773438 843.898438 750.371094 839.625 C 750.671875 837.523438 751.871094 831.449219 753.148438 826.125 C 754.871094 818.625 755.320312 815.25 755.023438 811.273438 C 754.871094 808.5 754.570312 806.023438 754.347656 805.875 C 754.195312 805.726562 752.847656 805.949219 751.347656 806.398438 C 749.023438 807.074219 748.273438 807 745.945312 805.648438 L 743.320312 804.074219 L 741.148438 806.851562 C 738.972656 809.476562 738.820312 809.550781 736.796875 808.5 C 735.445312 807.75 733.273438 807.449219 730.195312 807.675781 C 717.597656 808.425781 716.847656 808.351562 712.046875 805.199219 C 709.648438 803.625 705.371094 800.476562 702.671875 798.300781 C 698.695312 795.074219 697.121094 794.25 694.945312 794.25 C 692.320312 794.25 692.246094 794.175781 692.246094 791.625 C 692.246094 788.699219 692.097656 788.625 689.847656 789.824219 C 688.121094 790.800781 688.347656 790.199219 691.273438 786.300781 C 693.445312 783.375 693.445312 783 691.046875 783 C 689.472656 783 688.796875 783.75 686.996094 787.648438 Z M 686.996094 787.648438 " fill-opacity="1" fill-rule="nonzero"/></svg>